<mxfile host="65bd71144e" pages="2">
    <diagram id="ePY9pOdQ_xqClPKBMBqk" name="Page-2">
        <mxGraphModel dx="480" dy="533" grid="1" gridSize="10" guides="1" tooltips="1" connect="1" arrows="1" fold="1" page="1" pageScale="1" pageWidth="1169" pageHeight="827" math="0" shadow="0">
            <root>
                <mxCell id="0"/>
                <mxCell id="1" parent="0"/>
                <mxCell id="xZM_s8RJLBd2QscB2Wxe-13" style="edgeStyle=orthogonalEdgeStyle;rounded=0;orthogonalLoop=1;jettySize=auto;html=1;" parent="1" source="xZM_s8RJLBd2QscB2Wxe-3" target="xZM_s8RJLBd2QscB2Wxe-7" edge="1">
                    <mxGeometry relative="1" as="geometry">
                        <Array as="points">
                            <mxPoint x="480" y="240"/>
                            <mxPoint x="480" y="240"/>
                        </Array>
                    </mxGeometry>
                </mxCell>
                <mxCell id="xZM_s8RJLBd2QscB2Wxe-16" value="Real-time context data" style="edgeLabel;html=1;align=center;verticalAlign=middle;resizable=0;points=[];" parent="xZM_s8RJLBd2QscB2Wxe-13" vertex="1" connectable="0">
                    <mxGeometry x="-0.1487" y="-1" relative="1" as="geometry">
                        <mxPoint as="offset"/>
                    </mxGeometry>
                </mxCell>
                <mxCell id="xZM_s8RJLBd2QscB2Wxe-3" value="" style="rounded=0;whiteSpace=wrap;html=1;" parent="1" vertex="1">
                    <mxGeometry x="120" y="110" width="130" height="450" as="geometry"/>
                </mxCell>
                <mxCell id="xZM_s8RJLBd2QscB2Wxe-8" style="edgeStyle=orthogonalEdgeStyle;rounded=0;orthogonalLoop=1;jettySize=auto;html=1;" parent="1" source="xZM_s8RJLBd2QscB2Wxe-4" target="xZM_s8RJLBd2QscB2Wxe-7" edge="1">
                    <mxGeometry relative="1" as="geometry">
                        <Array as="points">
                            <mxPoint x="570" y="150"/>
                            <mxPoint x="570" y="150"/>
                        </Array>
                    </mxGeometry>
                </mxCell>
                <mxCell id="xZM_s8RJLBd2QscB2Wxe-15" value="Real-time user data" style="edgeLabel;html=1;align=center;verticalAlign=middle;resizable=0;points=[];" parent="xZM_s8RJLBd2QscB2Wxe-8" vertex="1" connectable="0">
                    <mxGeometry x="-0.0022" y="-1" relative="1" as="geometry">
                        <mxPoint as="offset"/>
                    </mxGeometry>
                </mxCell>
                <mxCell id="xZM_s8RJLBd2QscB2Wxe-4" value="" style="shape=umlActor;verticalLabelPosition=bottom;verticalAlign=top;html=1;outlineConnect=0;" parent="1" vertex="1">
                    <mxGeometry x="165" y="120" width="30" height="60" as="geometry"/>
                </mxCell>
                <mxCell id="Ttl8TrbE9S9pyzrhzkl1-9" style="edgeStyle=orthogonalEdgeStyle;rounded=0;orthogonalLoop=1;jettySize=auto;html=1;dashed=1;dashPattern=12 12;" parent="1" source="xZM_s8RJLBd2QscB2Wxe-5" target="xZM_s8RJLBd2QscB2Wxe-4" edge="1">
                    <mxGeometry relative="1" as="geometry">
                        <Array as="points">
                            <mxPoint x="180" y="380"/>
                            <mxPoint x="180" y="380"/>
                        </Array>
                    </mxGeometry>
                </mxCell>
                <mxCell id="Ttl8TrbE9S9pyzrhzkl1-11" value="Perception" style="edgeLabel;html=1;align=center;verticalAlign=middle;resizable=0;points=[];" parent="Ttl8TrbE9S9pyzrhzkl1-9" vertex="1" connectable="0">
                    <mxGeometry x="-0.0379" y="-1" relative="1" as="geometry">
                        <mxPoint as="offset"/>
                    </mxGeometry>
                </mxCell>
                <mxCell id="xZM_s8RJLBd2QscB2Wxe-5" value="" style="shape=image;html=1;verticalAlign=top;verticalLabelPosition=bottom;labelBackgroundColor=#ffffff;imageAspect=0;aspect=fixed;image=https://cdn0.iconfinder.com/data/icons/construction-2-21/512/construction-industry-building-08-128.png" parent="1" vertex="1">
                    <mxGeometry x="133" y="444" width="104" height="104" as="geometry"/>
                </mxCell>
                <mxCell id="xZM_s8RJLBd2QscB2Wxe-7" value="" style="rounded=0;whiteSpace=wrap;html=1;" parent="1" vertex="1">
                    <mxGeometry x="640" y="110" width="130" height="450" as="geometry"/>
                </mxCell>
                <mxCell id="xZM_s8RJLBd2QscB2Wxe-10" style="edgeStyle=orthogonalEdgeStyle;rounded=0;orthogonalLoop=1;jettySize=auto;html=1;" parent="1" source="xZM_s8RJLBd2QscB2Wxe-9" target="xZM_s8RJLBd2QscB2Wxe-7" edge="1">
                    <mxGeometry relative="1" as="geometry">
                        <Array as="points">
                            <mxPoint x="540" y="195"/>
                            <mxPoint x="540" y="195"/>
                        </Array>
                    </mxGeometry>
                </mxCell>
                <mxCell id="xZM_s8RJLBd2QscB2Wxe-14" value="User Profile" style="edgeLabel;html=1;align=center;verticalAlign=middle;resizable=0;points=[];" parent="xZM_s8RJLBd2QscB2Wxe-10" vertex="1" connectable="0">
                    <mxGeometry x="-0.1587" y="3" relative="1" as="geometry">
                        <mxPoint as="offset"/>
                    </mxGeometry>
                </mxCell>
                <mxCell id="xZM_s8RJLBd2QscB2Wxe-9" value="" style="sketch=0;aspect=fixed;pointerEvents=1;shadow=0;dashed=0;html=1;strokeColor=none;labelPosition=center;verticalLabelPosition=bottom;verticalAlign=top;align=center;fillColor=#000000;shape=mxgraph.mscae.enterprise.document" parent="1" vertex="1">
                    <mxGeometry x="200" y="180" width="24" height="30" as="geometry"/>
                </mxCell>
                <mxCell id="xZM_s8RJLBd2QscB2Wxe-12" style="edgeStyle=orthogonalEdgeStyle;rounded=0;orthogonalLoop=1;jettySize=auto;html=1;" parent="1" source="xZM_s8RJLBd2QscB2Wxe-11" target="xZM_s8RJLBd2QscB2Wxe-7" edge="1">
                    <mxGeometry relative="1" as="geometry">
                        <Array as="points">
                            <mxPoint x="560" y="280"/>
                            <mxPoint x="560" y="280"/>
                        </Array>
                    </mxGeometry>
                </mxCell>
                <mxCell id="xZM_s8RJLBd2QscB2Wxe-17" value="Context Profile" style="edgeLabel;html=1;align=center;verticalAlign=middle;resizable=0;points=[];" parent="xZM_s8RJLBd2QscB2Wxe-12" vertex="1" connectable="0">
                    <mxGeometry x="-0.0761" y="1" relative="1" as="geometry">
                        <mxPoint as="offset"/>
                    </mxGeometry>
                </mxCell>
                <mxCell id="Ttl8TrbE9S9pyzrhzkl1-3" value="&lt;b&gt;Robot Behaviour&lt;br&gt;Parameter&amp;nbsp;Algorithm&amp;nbsp;&lt;br&gt;&lt;/b&gt;" style="text;html=1;strokeColor=none;fillColor=none;align=center;verticalAlign=middle;whiteSpace=wrap;rounded=0;" parent="1" vertex="1">
                    <mxGeometry x="643" y="97" width="125" height="60" as="geometry"/>
                </mxCell>
                <mxCell id="Ttl8TrbE9S9pyzrhzkl1-4" value="Parameter&lt;br&gt;Tuning" style="rounded=0;whiteSpace=wrap;html=1;" parent="1" vertex="1">
                    <mxGeometry x="660.5" y="444" width="90" height="110" as="geometry"/>
                </mxCell>
                <mxCell id="xZM_s8RJLBd2QscB2Wxe-18" style="edgeStyle=orthogonalEdgeStyle;rounded=0;orthogonalLoop=1;jettySize=auto;html=1;" parent="1" source="Ttl8TrbE9S9pyzrhzkl1-4" target="xZM_s8RJLBd2QscB2Wxe-5" edge="1">
                    <mxGeometry relative="1" as="geometry">
                        <Array as="points">
                            <mxPoint x="390" y="450"/>
                            <mxPoint x="390" y="450"/>
                        </Array>
                    </mxGeometry>
                </mxCell>
                <mxCell id="Sih9cUjsu1dXz6UXgHzH-1" value="Speed" style="edgeLabel;html=1;align=center;verticalAlign=middle;resizable=0;points=[];" parent="xZM_s8RJLBd2QscB2Wxe-18" vertex="1" connectable="0">
                    <mxGeometry x="0.0968" y="-1" relative="1" as="geometry">
                        <mxPoint as="offset"/>
                    </mxGeometry>
                </mxCell>
                <mxCell id="xZM_s8RJLBd2QscB2Wxe-19" style="edgeStyle=orthogonalEdgeStyle;rounded=0;orthogonalLoop=1;jettySize=auto;html=1;" parent="1" source="Ttl8TrbE9S9pyzrhzkl1-4" target="xZM_s8RJLBd2QscB2Wxe-5" edge="1">
                    <mxGeometry relative="1" as="geometry">
                        <Array as="points">
                            <mxPoint x="360" y="480"/>
                            <mxPoint x="360" y="480"/>
                        </Array>
                    </mxGeometry>
                </mxCell>
                <mxCell id="Sih9cUjsu1dXz6UXgHzH-2" value="Smoothness" style="edgeLabel;html=1;align=center;verticalAlign=middle;resizable=0;points=[];" parent="xZM_s8RJLBd2QscB2Wxe-19" vertex="1" connectable="0">
                    <mxGeometry x="0.0819" relative="1" as="geometry">
                        <mxPoint as="offset"/>
                    </mxGeometry>
                </mxCell>
                <mxCell id="xZM_s8RJLBd2QscB2Wxe-20" style="edgeStyle=orthogonalEdgeStyle;rounded=0;orthogonalLoop=1;jettySize=auto;html=1;" parent="1" source="Ttl8TrbE9S9pyzrhzkl1-4" target="xZM_s8RJLBd2QscB2Wxe-5" edge="1">
                    <mxGeometry relative="1" as="geometry">
                        <Array as="points">
                            <mxPoint x="350" y="510"/>
                            <mxPoint x="350" y="510"/>
                        </Array>
                    </mxGeometry>
                </mxCell>
                <mxCell id="Ttl8TrbE9S9pyzrhzkl1-1" value="Rotation" style="edgeLabel;html=1;align=center;verticalAlign=middle;resizable=0;points=[];" parent="xZM_s8RJLBd2QscB2Wxe-20" vertex="1" connectable="0">
                    <mxGeometry x="0.0868" y="-2" relative="1" as="geometry">
                        <mxPoint as="offset"/>
                    </mxGeometry>
                </mxCell>
                <mxCell id="xZM_s8RJLBd2QscB2Wxe-21" style="edgeStyle=orthogonalEdgeStyle;rounded=0;orthogonalLoop=1;jettySize=auto;html=1;" parent="1" source="Ttl8TrbE9S9pyzrhzkl1-4" target="xZM_s8RJLBd2QscB2Wxe-5" edge="1">
                    <mxGeometry relative="1" as="geometry">
                        <Array as="points">
                            <mxPoint x="430" y="540"/>
                            <mxPoint x="430" y="540"/>
                        </Array>
                    </mxGeometry>
                </mxCell>
                <mxCell id="Ttl8TrbE9S9pyzrhzkl1-2" value="Proxemics" style="edgeLabel;html=1;align=center;verticalAlign=middle;resizable=0;points=[];" parent="xZM_s8RJLBd2QscB2Wxe-21" vertex="1" connectable="0">
                    <mxGeometry x="0.0819" y="-2" relative="1" as="geometry">
                        <mxPoint as="offset"/>
                    </mxGeometry>
                </mxCell>
                <mxCell id="Ttl8TrbE9S9pyzrhzkl1-7" style="edgeStyle=orthogonalEdgeStyle;rounded=0;orthogonalLoop=1;jettySize=auto;html=1;exitX=0.5;exitY=1;exitDx=0;exitDy=0;dashed=1;" parent="1" source="Ttl8TrbE9S9pyzrhzkl1-5" target="Ttl8TrbE9S9pyzrhzkl1-4" edge="1">
                    <mxGeometry relative="1" as="geometry">
                        <Array as="points">
                            <mxPoint x="675" y="410"/>
                            <mxPoint x="675" y="410"/>
                        </Array>
                    </mxGeometry>
                </mxCell>
                <mxCell id="Ttl8TrbE9S9pyzrhzkl1-5" value="Analysis&lt;br&gt;Module" style="rounded=0;whiteSpace=wrap;html=1;" parent="1" vertex="1">
                    <mxGeometry x="650" y="170" width="50" height="90" as="geometry"/>
                </mxCell>
                <mxCell id="Ttl8TrbE9S9pyzrhzkl1-8" style="edgeStyle=orthogonalEdgeStyle;rounded=0;orthogonalLoop=1;jettySize=auto;html=1;dashed=1;" parent="1" source="Ttl8TrbE9S9pyzrhzkl1-5" target="Ttl8TrbE9S9pyzrhzkl1-6" edge="1">
                    <mxGeometry relative="1" as="geometry">
                        <Array as="points">
                            <mxPoint x="735" y="215"/>
                        </Array>
                    </mxGeometry>
                </mxCell>
                <mxCell id="Ttl8TrbE9S9pyzrhzkl1-13" style="edgeStyle=orthogonalEdgeStyle;rounded=0;orthogonalLoop=1;jettySize=auto;html=1;" parent="1" source="Ttl8TrbE9S9pyzrhzkl1-6" target="xZM_s8RJLBd2QscB2Wxe-5" edge="1">
                    <mxGeometry relative="1" as="geometry">
                        <Array as="points">
                            <mxPoint x="210" y="385"/>
                        </Array>
                    </mxGeometry>
                </mxCell>
                <mxCell id="Ttl8TrbE9S9pyzrhzkl1-14" value="Specialized Movement" style="edgeLabel;html=1;align=center;verticalAlign=middle;resizable=0;points=[];" parent="Ttl8TrbE9S9pyzrhzkl1-13" vertex="1" connectable="0">
                    <mxGeometry x="-0.2058" y="-2" relative="1" as="geometry">
                        <mxPoint as="offset"/>
                    </mxGeometry>
                </mxCell>
                <mxCell id="Ttl8TrbE9S9pyzrhzkl1-6" value="Episodic Behaviour" style="rounded=0;whiteSpace=wrap;html=1;" parent="1" vertex="1">
                    <mxGeometry x="700" y="340" width="60" height="90" as="geometry"/>
                </mxCell>
                <mxCell id="MhGFcKTUFlbDdOSMXsDI-5" value="" style="rounded=0;whiteSpace=wrap;html=1;strokeColor=none;" parent="1" vertex="1">
                    <mxGeometry x="222" y="250" width="50" height="50" as="geometry"/>
                </mxCell>
                <mxCell id="xZM_s8RJLBd2QscB2Wxe-11" value="" style="sketch=0;aspect=fixed;pointerEvents=1;shadow=0;dashed=0;html=1;strokeColor=none;labelPosition=center;verticalLabelPosition=bottom;verticalAlign=top;align=center;fillColor=#000000;shape=mxgraph.mscae.enterprise.document;labelBackgroundColor=none;textOpacity=30;gradientColor=none;" parent="1" vertex="1">
                    <mxGeometry x="230" y="250" width="42" height="52.5" as="geometry"/>
                </mxCell>
            </root>
        </mxGraphModel>
    </diagram>
    <diagram name="Page-1" id="zjO7f3ao0eX6QBGfRVmW">
        <mxGraphModel dx="480" dy="533" grid="1" gridSize="10" guides="1" tooltips="1" connect="1" arrows="1" fold="1" page="1" pageScale="1" pageWidth="1169" pageHeight="827" math="0" shadow="0">
            <root>
                <mxCell id="0"/>
                <mxCell id="1" parent="0"/>
                <mxCell id="xrnMmWp7YfHEXwGSeNdp-1" value="" style="shape=image;html=1;verticalAlign=top;verticalLabelPosition=bottom;labelBackgroundColor=#ffffff;imageAspect=0;aspect=fixed;image=https://cdn0.iconfinder.com/data/icons/construction-2-21/512/construction-industry-building-08-128.png" parent="1" vertex="1">
                    <mxGeometry x="950" y="30" width="128" height="128" as="geometry"/>
                </mxCell>
                <mxCell id="xrnMmWp7YfHEXwGSeNdp-12" style="edgeStyle=orthogonalEdgeStyle;rounded=0;orthogonalLoop=1;jettySize=auto;html=1;" parent="1" source="xrnMmWp7YfHEXwGSeNdp-2" target="xrnMmWp7YfHEXwGSeNdp-1" edge="1">
                    <mxGeometry relative="1" as="geometry">
                        <Array as="points">
                            <mxPoint x="800" y="50"/>
                            <mxPoint x="800" y="50"/>
                        </Array>
                    </mxGeometry>
                </mxCell>
                <mxCell id="xrnMmWp7YfHEXwGSeNdp-16" value="Speed" style="edgeLabel;html=1;align=center;verticalAlign=middle;resizable=0;points=[];" parent="xrnMmWp7YfHEXwGSeNdp-12" vertex="1" connectable="0">
                    <mxGeometry x="0.0692" y="3" relative="1" as="geometry">
                        <mxPoint x="-23" as="offset"/>
                    </mxGeometry>
                </mxCell>
                <mxCell id="xrnMmWp7YfHEXwGSeNdp-20" style="edgeStyle=orthogonalEdgeStyle;rounded=0;orthogonalLoop=1;jettySize=auto;html=1;" parent="1" source="xrnMmWp7YfHEXwGSeNdp-2" target="xrnMmWp7YfHEXwGSeNdp-1" edge="1">
                    <mxGeometry relative="1" as="geometry">
                        <Array as="points">
                            <mxPoint x="460" y="180"/>
                            <mxPoint x="1014" y="180"/>
                        </Array>
                    </mxGeometry>
                </mxCell>
                <mxCell id="xrnMmWp7YfHEXwGSeNdp-2" value="" style="points=[];aspect=fixed;html=1;align=center;shadow=0;dashed=0;image;image=img/lib/allied_telesis/computer_and_terminals/Personal_Computer_with_Server.svg;" parent="1" vertex="1">
                    <mxGeometry x="377" y="47" width="96" height="96" as="geometry"/>
                </mxCell>
                <mxCell id="xrnMmWp7YfHEXwGSeNdp-7" style="edgeStyle=orthogonalEdgeStyle;rounded=0;orthogonalLoop=1;jettySize=auto;html=1;exitX=0.5;exitY=0;exitDx=0;exitDy=0;" parent="1" source="xrnMmWp7YfHEXwGSeNdp-3" target="xrnMmWp7YfHEXwGSeNdp-2" edge="1">
                    <mxGeometry relative="1" as="geometry">
                        <Array as="points">
                            <mxPoint x="215" y="246"/>
                            <mxPoint x="410" y="246"/>
                        </Array>
                    </mxGeometry>
                </mxCell>
                <mxCell id="xrnMmWp7YfHEXwGSeNdp-3" value="&lt;b&gt;Bootstrapping Engine&lt;/b&gt;&lt;br&gt;take in parameters and data before operating and set a bootstrap value on our scale&amp;nbsp;" style="whiteSpace=wrap;html=1;aspect=fixed;" parent="1" vertex="1">
                    <mxGeometry x="110" y="350" width="210" height="210" as="geometry"/>
                </mxCell>
                <mxCell id="xrnMmWp7YfHEXwGSeNdp-8" style="edgeStyle=orthogonalEdgeStyle;rounded=0;orthogonalLoop=1;jettySize=auto;html=1;exitX=0.5;exitY=0;exitDx=0;exitDy=0;" parent="1" source="xrnMmWp7YfHEXwGSeNdp-4" target="xrnMmWp7YfHEXwGSeNdp-2" edge="1">
                    <mxGeometry relative="1" as="geometry">
                        <Array as="points">
                            <mxPoint x="705" y="246"/>
                            <mxPoint x="440" y="246"/>
                        </Array>
                    </mxGeometry>
                </mxCell>
                <mxCell id="xrnMmWp7YfHEXwGSeNdp-4" value="&lt;b&gt;Runtime Engine&lt;/b&gt;&lt;br&gt;Analyse data in real-time and provide adjustments when thresholds in individual values are exceeded." style="whiteSpace=wrap;html=1;aspect=fixed;" parent="1" vertex="1">
                    <mxGeometry x="600" y="350" width="210" height="210" as="geometry"/>
                </mxCell>
                <mxCell id="xrnMmWp7YfHEXwGSeNdp-6" style="edgeStyle=orthogonalEdgeStyle;rounded=0;orthogonalLoop=1;jettySize=auto;html=1;" parent="1" source="xrnMmWp7YfHEXwGSeNdp-5" target="xrnMmWp7YfHEXwGSeNdp-3" edge="1">
                    <mxGeometry relative="1" as="geometry">
                        <Array as="points">
                            <mxPoint x="160" y="580"/>
                            <mxPoint x="160" y="580"/>
                        </Array>
                    </mxGeometry>
                </mxCell>
                <mxCell id="xrnMmWp7YfHEXwGSeNdp-5" value="" style="shape=image;html=1;verticalAlign=top;verticalLabelPosition=bottom;labelBackgroundColor=#ffffff;imageAspect=0;aspect=fixed;image=https://cdn4.iconfinder.com/data/icons/social-media-2182/512/linked_in__social__media__social_media__-128.png" parent="1" vertex="1">
                    <mxGeometry x="136" y="630" width="48" height="48" as="geometry"/>
                </mxCell>
                <mxCell id="xrnMmWp7YfHEXwGSeNdp-11" value="&lt;h1&gt;What we want to know&lt;/h1&gt;&lt;p&gt;1. Is the bootstrapped approach better than starting at an arbitrary starting point for every operator?&lt;br&gt;&lt;/p&gt;&lt;p&gt;2. Are the adjustments in robot movement parameters noticed by operators?&lt;/p&gt;" style="text;html=1;strokeColor=none;fillColor=none;spacing=5;spacingTop=-20;whiteSpace=wrap;overflow=hidden;rounded=0;" parent="1" vertex="1">
                    <mxGeometry x="10" y="20" width="340" height="130" as="geometry"/>
                </mxCell>
                <mxCell id="xrnMmWp7YfHEXwGSeNdp-13" style="edgeStyle=orthogonalEdgeStyle;rounded=0;orthogonalLoop=1;jettySize=auto;html=1;" parent="1" source="xrnMmWp7YfHEXwGSeNdp-2" target="xrnMmWp7YfHEXwGSeNdp-1" edge="1">
                    <mxGeometry relative="1" as="geometry">
                        <mxPoint x="473" y="80" as="sourcePoint"/>
                        <mxPoint x="950" y="80" as="targetPoint"/>
                        <Array as="points">
                            <mxPoint x="750" y="80"/>
                            <mxPoint x="750" y="80"/>
                        </Array>
                    </mxGeometry>
                </mxCell>
                <mxCell id="xrnMmWp7YfHEXwGSeNdp-17" value="Smoothness" style="edgeLabel;html=1;align=center;verticalAlign=middle;resizable=0;points=[];" parent="xrnMmWp7YfHEXwGSeNdp-13" vertex="1" connectable="0">
                    <mxGeometry x="0.0105" y="1" relative="1" as="geometry">
                        <mxPoint x="-9" as="offset"/>
                    </mxGeometry>
                </mxCell>
                <mxCell id="xrnMmWp7YfHEXwGSeNdp-14" style="edgeStyle=orthogonalEdgeStyle;rounded=0;orthogonalLoop=1;jettySize=auto;html=1;" parent="1" source="xrnMmWp7YfHEXwGSeNdp-2" target="xrnMmWp7YfHEXwGSeNdp-1" edge="1">
                    <mxGeometry relative="1" as="geometry">
                        <mxPoint x="480" y="120" as="sourcePoint"/>
                        <mxPoint x="957" y="120" as="targetPoint"/>
                        <Array as="points">
                            <mxPoint x="760" y="110"/>
                            <mxPoint x="760" y="110"/>
                        </Array>
                    </mxGeometry>
                </mxCell>
                <mxCell id="xrnMmWp7YfHEXwGSeNdp-18" value="Rotation" style="edgeLabel;html=1;align=center;verticalAlign=middle;resizable=0;points=[];" parent="xrnMmWp7YfHEXwGSeNdp-14" vertex="1" connectable="0">
                    <mxGeometry x="-0.0189" y="1" relative="1" as="geometry">
                        <mxPoint x="-2" as="offset"/>
                    </mxGeometry>
                </mxCell>
                <mxCell id="xrnMmWp7YfHEXwGSeNdp-15" value="Proxemics" style="edgeStyle=orthogonalEdgeStyle;rounded=0;orthogonalLoop=1;jettySize=auto;html=1;" parent="1" source="xrnMmWp7YfHEXwGSeNdp-2" target="xrnMmWp7YfHEXwGSeNdp-1" edge="1">
                    <mxGeometry relative="1" as="geometry">
                        <mxPoint x="480" y="150" as="sourcePoint"/>
                        <mxPoint x="957" y="150" as="targetPoint"/>
                        <Array as="points">
                            <mxPoint x="770" y="140"/>
                            <mxPoint x="770" y="140"/>
                        </Array>
                    </mxGeometry>
                </mxCell>
                <mxCell id="xrnMmWp7YfHEXwGSeNdp-19" value="" style="dashed=0;verticalLabelPosition=bottom;verticalAlign=top;align=center;shape=mxgraph.gmdl.slider2;barPos=58.57;strokeColor=#0F9D58;opacity=100;strokeWidth=2;fillColor=#0F9D58;handleSize=10;shadow=0;html=1;" parent="1" vertex="1">
                    <mxGeometry x="250" y="220" width="140" height="10" as="geometry"/>
                </mxCell>
                <mxCell id="xrnMmWp7YfHEXwGSeNdp-21" value="" style="sketch=0;aspect=fixed;html=1;points=[];align=center;image;fontSize=12;image=img/lib/mscae/Clock.svg;" parent="1" vertex="1">
                    <mxGeometry x="557" y="161" width="38" height="38" as="geometry"/>
                </mxCell>
                <mxCell id="xrnMmWp7YfHEXwGSeNdp-23" value="episodic behaviour for welcoming operator to workstation" style="text;html=1;align=center;verticalAlign=middle;resizable=0;points=[];autosize=1;strokeColor=none;fillColor=none;" parent="1" vertex="1">
                    <mxGeometry x="595" y="175" width="330" height="30" as="geometry"/>
                </mxCell>
                <mxCell id="xrnMmWp7YfHEXwGSeNdp-26" style="edgeStyle=orthogonalEdgeStyle;rounded=0;orthogonalLoop=1;jettySize=auto;html=1;exitX=0;exitY=0.75;exitDx=0;exitDy=0;startArrow=classic;startFill=1;" parent="1" source="xrnMmWp7YfHEXwGSeNdp-25" target="xrnMmWp7YfHEXwGSeNdp-3" edge="1">
                    <mxGeometry relative="1" as="geometry">
                        <Array as="points">
                            <mxPoint x="350" y="360"/>
                            <mxPoint x="350" y="360"/>
                        </Array>
                    </mxGeometry>
                </mxCell>
                <mxCell id="xrnMmWp7YfHEXwGSeNdp-27" style="edgeStyle=orthogonalEdgeStyle;rounded=0;orthogonalLoop=1;jettySize=auto;html=1;exitX=1;exitY=0.75;exitDx=0;exitDy=0;startArrow=classic;startFill=1;" parent="1" source="xrnMmWp7YfHEXwGSeNdp-25" target="xrnMmWp7YfHEXwGSeNdp-4" edge="1">
                    <mxGeometry relative="1" as="geometry">
                        <Array as="points">
                            <mxPoint x="580" y="360"/>
                            <mxPoint x="580" y="360"/>
                        </Array>
                    </mxGeometry>
                </mxCell>
                <mxCell id="xrnMmWp7YfHEXwGSeNdp-25" value="&lt;b&gt;Preference Repository&lt;/b&gt;" style="whiteSpace=wrap;html=1;aspect=fixed;fillColor=#f5f5f5;fontColor=#333333;strokeColor=#666666;" parent="1" vertex="1">
                    <mxGeometry x="420" y="300" width="80" height="80" as="geometry"/>
                </mxCell>
                <mxCell id="xrnMmWp7YfHEXwGSeNdp-28" value="" style="shape=image;html=1;verticalAlign=top;verticalLabelPosition=bottom;labelBackgroundColor=#ffffff;imageAspect=0;aspect=fixed;image=https://cdn0.iconfinder.com/data/icons/phosphor-fill-vol-4/256/plus-minus-fill-128.png" parent="1" vertex="1">
                    <mxGeometry x="650" y="246" width="54" height="54" as="geometry"/>
                </mxCell>
                <mxCell id="xrnMmWp7YfHEXwGSeNdp-29" value="retrieve &lt;b&gt;Age&lt;/b&gt;&amp;nbsp;and&amp;nbsp;&lt;b&gt;Experience&lt;/b&gt;&amp;nbsp;using &lt;br&gt;language model from LinkedIn profile" style="text;html=1;align=center;verticalAlign=middle;resizable=0;points=[];autosize=1;strokeColor=none;fillColor=none;" parent="1" vertex="1">
                    <mxGeometry x="157" y="580" width="220" height="40" as="geometry"/>
                </mxCell>
                <mxCell id="xrnMmWp7YfHEXwGSeNdp-35" style="edgeStyle=orthogonalEdgeStyle;rounded=0;orthogonalLoop=1;jettySize=auto;html=1;exitX=1;exitY=0.25;exitDx=0;exitDy=0;" parent="1" source="xrnMmWp7YfHEXwGSeNdp-31" target="xrnMmWp7YfHEXwGSeNdp-4" edge="1">
                    <mxGeometry relative="1" as="geometry">
                        <Array as="points">
                            <mxPoint x="580" y="493"/>
                            <mxPoint x="580" y="493"/>
                        </Array>
                    </mxGeometry>
                </mxCell>
                <mxCell id="xrnMmWp7YfHEXwGSeNdp-36" style="edgeStyle=orthogonalEdgeStyle;rounded=0;orthogonalLoop=1;jettySize=auto;html=1;" parent="1" source="xrnMmWp7YfHEXwGSeNdp-31" target="xrnMmWp7YfHEXwGSeNdp-3" edge="1">
                    <mxGeometry relative="1" as="geometry">
                        <Array as="points">
                            <mxPoint x="350" y="525"/>
                            <mxPoint x="350" y="525"/>
                        </Array>
                    </mxGeometry>
                </mxCell>
                <mxCell id="xrnMmWp7YfHEXwGSeNdp-31" value="&lt;b&gt;Context Parameters&lt;/b&gt;" style="whiteSpace=wrap;html=1;aspect=fixed;fillColor=#ffe6cc;strokeColor=#d79b00;" parent="1" vertex="1">
                    <mxGeometry x="395" y="430" width="130" height="130" as="geometry"/>
                </mxCell>
                <mxCell id="xrnMmWp7YfHEXwGSeNdp-33" value="current time" style="text;html=1;align=center;verticalAlign=middle;resizable=0;points=[];autosize=1;strokeColor=none;fillColor=none;" parent="1" vertex="1">
                    <mxGeometry x="395" y="430" width="90" height="30" as="geometry"/>
                </mxCell>
                <mxCell id="xrnMmWp7YfHEXwGSeNdp-34" value="shift start/end" style="text;html=1;align=center;verticalAlign=middle;resizable=0;points=[];autosize=1;strokeColor=none;fillColor=none;" parent="1" vertex="1">
                    <mxGeometry x="425" y="530" width="100" height="30" as="geometry"/>
                </mxCell>
                <mxCell id="ZPGqRREG0TbwkIk2ehY3-2" style="edgeStyle=orthogonalEdgeStyle;rounded=0;orthogonalLoop=1;jettySize=auto;html=1;exitX=0;exitY=0.5;exitDx=0;exitDy=0;" parent="1" source="ZPGqRREG0TbwkIk2ehY3-1" target="xrnMmWp7YfHEXwGSeNdp-4" edge="1">
                    <mxGeometry relative="1" as="geometry">
                        <Array as="points">
                            <mxPoint x="860" y="370"/>
                            <mxPoint x="860" y="370"/>
                        </Array>
                    </mxGeometry>
                </mxCell>
                <mxCell id="ZPGqRREG0TbwkIk2ehY3-3" value="HR" style="edgeLabel;html=1;align=center;verticalAlign=middle;resizable=0;points=[];" parent="ZPGqRREG0TbwkIk2ehY3-2" vertex="1" connectable="0">
                    <mxGeometry x="-0.03" y="-3" relative="1" as="geometry">
                        <mxPoint as="offset"/>
                    </mxGeometry>
                </mxCell>
                <mxCell id="ZPGqRREG0TbwkIk2ehY3-1" value="Heart Rate&lt;br&gt;Monitor" style="rounded=0;whiteSpace=wrap;html=1;" parent="1" vertex="1">
                    <mxGeometry x="1010" y="360" width="120" height="50" as="geometry"/>
                </mxCell>
                <mxCell id="ZPGqRREG0TbwkIk2ehY3-9" style="edgeStyle=orthogonalEdgeStyle;rounded=0;orthogonalLoop=1;jettySize=auto;html=1;exitX=0;exitY=0.5;exitDx=0;exitDy=0;" parent="1" target="xrnMmWp7YfHEXwGSeNdp-4" edge="1">
                    <mxGeometry relative="1" as="geometry">
                        <mxPoint x="1010" y="404" as="sourcePoint"/>
                        <Array as="points">
                            <mxPoint x="870" y="404"/>
                            <mxPoint x="870" y="404"/>
                        </Array>
                    </mxGeometry>
                </mxCell>
                <mxCell id="ZPGqRREG0TbwkIk2ehY3-10" value="HRV" style="edgeLabel;html=1;align=center;verticalAlign=middle;resizable=0;points=[];" parent="ZPGqRREG0TbwkIk2ehY3-9" vertex="1" connectable="0">
                    <mxGeometry x="-0.01" y="-1" relative="1" as="geometry">
                        <mxPoint as="offset"/>
                    </mxGeometry>
                </mxCell>
                <mxCell id="ZPGqRREG0TbwkIk2ehY3-11" style="edgeStyle=orthogonalEdgeStyle;rounded=0;orthogonalLoop=1;jettySize=auto;html=1;exitX=0;exitY=0.5;exitDx=0;exitDy=0;" parent="1" source="ZPGqRREG0TbwkIk2ehY3-5" target="xrnMmWp7YfHEXwGSeNdp-4" edge="1">
                    <mxGeometry relative="1" as="geometry">
                        <Array as="points">
                            <mxPoint x="860" y="440"/>
                            <mxPoint x="860" y="440"/>
                        </Array>
                    </mxGeometry>
                </mxCell>
                <mxCell id="ZPGqRREG0TbwkIk2ehY3-12" value="Body Temp" style="edgeLabel;html=1;align=center;verticalAlign=middle;resizable=0;points=[];" parent="ZPGqRREG0TbwkIk2ehY3-11" vertex="1" connectable="0">
                    <mxGeometry x="0.04" relative="1" as="geometry">
                        <mxPoint as="offset"/>
                    </mxGeometry>
                </mxCell>
                <mxCell id="ZPGqRREG0TbwkIk2ehY3-5" value="Body Temp Sensor" style="rounded=0;whiteSpace=wrap;html=1;" parent="1" vertex="1">
                    <mxGeometry x="1010" y="430" width="120" height="20" as="geometry"/>
                </mxCell>
                <mxCell id="ZPGqRREG0TbwkIk2ehY3-13" value="Electrodermal Activity" style="edgeStyle=orthogonalEdgeStyle;rounded=0;orthogonalLoop=1;jettySize=auto;html=1;exitX=0;exitY=0.5;exitDx=0;exitDy=0;" parent="1" source="ZPGqRREG0TbwkIk2ehY3-6" target="xrnMmWp7YfHEXwGSeNdp-4" edge="1">
                    <mxGeometry relative="1" as="geometry">
                        <Array as="points">
                            <mxPoint x="870" y="480"/>
                            <mxPoint x="870" y="480"/>
                        </Array>
                    </mxGeometry>
                </mxCell>
                <mxCell id="ZPGqRREG0TbwkIk2ehY3-6" value="EDA meter" style="rounded=0;whiteSpace=wrap;html=1;" parent="1" vertex="1">
                    <mxGeometry x="1010" y="470" width="120" height="20" as="geometry"/>
                </mxCell>
                <mxCell id="ZPGqRREG0TbwkIk2ehY3-14" style="edgeStyle=orthogonalEdgeStyle;rounded=0;orthogonalLoop=1;jettySize=auto;html=1;exitX=0;exitY=0.5;exitDx=0;exitDy=0;" parent="1" source="ZPGqRREG0TbwkIk2ehY3-7" target="xrnMmWp7YfHEXwGSeNdp-4" edge="1">
                    <mxGeometry relative="1" as="geometry">
                        <Array as="points">
                            <mxPoint x="860" y="520"/>
                            <mxPoint x="860" y="520"/>
                        </Array>
                    </mxGeometry>
                </mxCell>
                <mxCell id="ZPGqRREG0TbwkIk2ehY3-15" value="Oxygen Saturation" style="edgeLabel;html=1;align=center;verticalAlign=middle;resizable=0;points=[];" parent="ZPGqRREG0TbwkIk2ehY3-14" vertex="1" connectable="0">
                    <mxGeometry x="-0.02" y="-2" relative="1" as="geometry">
                        <mxPoint as="offset"/>
                    </mxGeometry>
                </mxCell>
                <mxCell id="ZPGqRREG0TbwkIk2ehY3-7" value="Oxymeter" style="rounded=0;whiteSpace=wrap;html=1;" parent="1" vertex="1">
                    <mxGeometry x="1010" y="510" width="120" height="20" as="geometry"/>
                </mxCell>
                <mxCell id="ZPGqRREG0TbwkIk2ehY3-16" style="edgeStyle=orthogonalEdgeStyle;rounded=0;orthogonalLoop=1;jettySize=auto;html=1;exitX=0;exitY=0.5;exitDx=0;exitDy=0;" parent="1" source="ZPGqRREG0TbwkIk2ehY3-8" target="xrnMmWp7YfHEXwGSeNdp-4" edge="1">
                    <mxGeometry relative="1" as="geometry">
                        <Array as="points">
                            <mxPoint x="790" y="580"/>
                        </Array>
                    </mxGeometry>
                </mxCell>
                <mxCell id="ZPGqRREG0TbwkIk2ehY3-19" value="Eye Closure Percentage" style="edgeLabel;html=1;align=center;verticalAlign=middle;resizable=0;points=[];" parent="ZPGqRREG0TbwkIk2ehY3-16" vertex="1" connectable="0">
                    <mxGeometry x="-0.0167" y="3" relative="1" as="geometry">
                        <mxPoint y="-3" as="offset"/>
                    </mxGeometry>
                </mxCell>
                <mxCell id="ZPGqRREG0TbwkIk2ehY3-8" value="Eye Tracker&lt;br&gt;(mobile)" style="rounded=0;whiteSpace=wrap;html=1;" parent="1" vertex="1">
                    <mxGeometry x="1010" y="570" width="120" height="50" as="geometry"/>
                </mxCell>
                <mxCell id="ZPGqRREG0TbwkIk2ehY3-18" style="edgeStyle=orthogonalEdgeStyle;rounded=0;orthogonalLoop=1;jettySize=auto;html=1;" parent="1" source="ZPGqRREG0TbwkIk2ehY3-8" target="xrnMmWp7YfHEXwGSeNdp-4" edge="1">
                    <mxGeometry relative="1" as="geometry">
                        <mxPoint x="1010" y="610" as="sourcePoint"/>
                        <Array as="points">
                            <mxPoint x="760" y="610"/>
                        </Array>
                    </mxGeometry>
                </mxCell>
                <mxCell id="ZPGqRREG0TbwkIk2ehY3-20" value="Pupil Dilation" style="edgeLabel;html=1;align=center;verticalAlign=middle;resizable=0;points=[];" parent="ZPGqRREG0TbwkIk2ehY3-18" vertex="1" connectable="0">
                    <mxGeometry x="-0.1133" y="1" relative="1" as="geometry">
                        <mxPoint as="offset"/>
                    </mxGeometry>
                </mxCell>
                <mxCell id="ZPGqRREG0TbwkIk2ehY3-22" value="Bootstrap Start Value of 1-10" style="text;html=1;strokeColor=none;fillColor=none;align=center;verticalAlign=middle;whiteSpace=wrap;rounded=0;" parent="1" vertex="1">
                    <mxGeometry x="255" y="246" width="130" height="30" as="geometry"/>
                </mxCell>
                <mxCell id="ZPGqRREG0TbwkIk2ehY3-23" value="Culture" style="text;html=1;align=center;verticalAlign=middle;resizable=0;points=[];autosize=1;strokeColor=none;fillColor=none;" parent="1" vertex="1">
                    <mxGeometry x="328" y="540" width="60" height="30" as="geometry"/>
                </mxCell>
                <mxCell id="ZPGqRREG0TbwkIk2ehY3-24" value="User Profile" style="text;html=1;align=center;verticalAlign=middle;resizable=0;points=[];autosize=1;strokeColor=none;fillColor=none;" parent="1" vertex="1">
                    <mxGeometry x="55" y="575" width="90" height="30" as="geometry"/>
                </mxCell>
                <mxCell id="ZPGqRREG0TbwkIk2ehY3-25" value="" style="endArrow=none;dashed=1;html=1;dashPattern=1 3;strokeWidth=2;rounded=0;" parent="1" edge="1">
                    <mxGeometry width="50" height="50" relative="1" as="geometry">
                        <mxPoint x="460" y="590" as="sourcePoint"/>
                        <mxPoint x="450" y="410" as="targetPoint"/>
                    </mxGeometry>
                </mxCell>
                <mxCell id="ZPGqRREG0TbwkIk2ehY3-26" value="Monitoring Frequency?" style="text;html=1;align=center;verticalAlign=middle;resizable=0;points=[];autosize=1;strokeColor=none;fillColor=none;" parent="1" vertex="1">
                    <mxGeometry x="630" y="575" width="150" height="30" as="geometry"/>
                </mxCell>
                <mxCell id="ZPGqRREG0TbwkIk2ehY3-28" style="edgeStyle=orthogonalEdgeStyle;rounded=0;orthogonalLoop=1;jettySize=auto;html=1;exitX=0;exitY=0.5;exitDx=0;exitDy=0;" parent="1" source="ZPGqRREG0TbwkIk2ehY3-27" target="xrnMmWp7YfHEXwGSeNdp-4" edge="1">
                    <mxGeometry relative="1" as="geometry">
                        <Array as="points">
                            <mxPoint x="790" y="310"/>
                        </Array>
                    </mxGeometry>
                </mxCell>
                <mxCell id="ZPGqRREG0TbwkIk2ehY3-29" value="Body Reactions" style="edgeLabel;html=1;align=center;verticalAlign=middle;resizable=0;points=[];" parent="ZPGqRREG0TbwkIk2ehY3-28" vertex="1" connectable="0">
                    <mxGeometry x="-0.1692" y="3" relative="1" as="geometry">
                        <mxPoint as="offset"/>
                    </mxGeometry>
                </mxCell>
                <mxCell id="ZPGqRREG0TbwkIk2ehY3-27" value="Kinect" style="rounded=0;whiteSpace=wrap;html=1;" parent="1" vertex="1">
                    <mxGeometry x="1010" y="280" width="120" height="60" as="geometry"/>
                </mxCell>
            </root>
        </mxGraphModel>
    </diagram>
</mxfile>